#!OML:ASF F:\VICON\USERDATA\INSTALL\rory3\rory3.ASF
:FULLY-SPECIFIED
:DEGREES
196
root 1.27245 16.6288 -16.1447 30.2061 -1.06551 -1.30352
lowerback 24.0179 0.140834 1.05971
upperback 1.70848 0.78456 2.62252
thorax -11.5841 0.387897 2.07526
lowerneck -26.3835 -4.63829 -8.45179
upperneck 7.21794 -4.35211 6.84332
head 6.70015 -1.72892 3.04433
rclavicle -3.18055e-015 -3.10104e-014
rhumerus -21.2768 2.51084 -85.7867
rradius 60.3749
rwrist -0.536967
rhand -13.9325 16.8495
rfingers 7.12502
rthumb 12.1942 -12.7751
lclavicle -3.18055e-015 -3.10104e-014
lhumerus -22.0117 -2.71757 88.3157
lradius 51.236
lwrist -1.44399
lhand -20.0609 19.9969
lfingers 7.12502
lthumb 6.28101 49.8838
rfemur -58.5499 1.74504 19.8873
rtibia 52.7846
rfoot -19.6243 -8.78664
rtoes -4.39509
lfemur -59.3967 0.303209 -18.5482
ltibia 53.3028
lfoot -23.0345 2.90033
ltoes -0.598711
197
root 1.27723 16.5715 -16.1344 30.9729 -1.16724 -1.23501
lowerback 24.2172 0.148447 0.995756
upperback 1.45786 0.781648 2.55025
thorax -11.9799 0.389519 2.03741
lowerneck -26.2831 -4.61884 -8.45309
upperneck 6.45585 -4.31763 6.93926
head 6.4339 -1.70491 3.08079
rclavicle 2.78299e-015 -4.49253e-014
rhumerus -21.4956 2.29261 -85.807
rradius 60.8809
rwrist -0.360494
rhand -15.0979 17.7572
rfingers 7.12502
rthumb 11.0703 -11.9308
lclavicle 2.78299e-015 -4.49253e-014
lhumerus -21.9016 -2.14641 88.2962
lradius 51.2496
lwrist -1.11592
lhand -20.0913 20.3557
lfingers 7.12502
lthumb 6.25163 50.2434
rfemur -59.9456 1.79279 19.7293
rtibia 53.7849
rfoot -19.8507 -8.98037
rtoes -5.25402
lfemur -60.754 0.31872 -18.6774
ltibia 54.2175
lfoot -23.2883 3.07678
ltoes 0.0265956
198
root 1.2836 16.5094 -16.1144 31.6026 -1.32522 -1.17032
lowerback 24.3824 0.159908 0.982305
upperback 1.4199 0.78021 2.41146
thorax -12.1117 0.384978 1.8907
lowerneck -26.7841 -4.66184 -8.30366
upperneck 5.80453 -4.37394 7.06576
head 6.29712 -1.70732 3.0892
rclavicle -5.1684e-015 7.95139e-016
rhumerus -21.4546 1.99844 -85.9247
rradius 61.3346
rwrist -0.747872
rhand -15.7376 16.6811
rfingers 7.12502
rthumb 10.4532 -13.039
lclavicle -5.1684e-015 7.95139e-016
lhumerus -21.2984 -1.58499 88.1995
lradius 50.9987
lwrist -0.731051
lhand -20.999 20.015
lfingers 7.12502
lthumb 5.37527 49.9268
rfemur -61.1779 1.81225 19.5747
rtibia 54.8177
rfoot -20.114 -9.07191
rtoes -5.73229
lfemur -61.8887 0.386861 -18.8507
ltibia 55.1715
lfoot -23.5769 3.19494
ltoes 0.661032
199
root 1.28706 16.4366 -16.0926 32.1999 -1.65144 -1.12142
lowerback 24.4972 0.242111 0.820781
upperback 1.46916 0.826207 2.27664
thorax -12.1187 0.409717 1.81563
lowerneck -27.4139 -4.71312 -8.34772
upperneck 5.16151 -4.38988 7.38205
head 6.18773 -1.676 3.1972
rclavicle -3.97569e-015 -1.94809e-014
rhumerus -21.0332 1.76651 -86.0442
rradius 61.3792
rwrist -1.80131
rhand -16.4732 17.427
rfingers 7.12502
rthumb 9.74366 -12.3276
lclavicle -3.97569e-015 -1.94809e-014
lhumerus -20.6776 -0.878344 88.1397
lradius 51.1064
lwrist -0.232868
lhand -21.4213 20.4881
lfingers 7.12502
lthumb 4.96753 50.4098
rfemur -62.4377 1.90327 19.4178
rtibia 55.893
rfoot -20.3436 -9.17973
rtoes -5.99253
lfemur -63.0088 0.596291 -19.0988
ltibia 56.146
lfoot -23.9046 3.2736
ltoes 0.899632
200
root 1.29032 16.3772 -16.0678 32.7111 -1.76265 -1.10359
lowerback 24.6272 0.266373 0.804002
upperback 1.45091 0.848066 2.21386
thorax -12.2105 0.418461 1.74776
lowerneck -27.6659 -4.78155 -8.48942
upperneck 4.4406 -4.4212 7.7067
head 6.00264 -1.66161 3.32296
rclavicle 7.95139e-016 8.74653e-015
rhumerus -20.7247 1.41301 -85.9965
rradius 61.7809
rwrist -1.89875
rhand -16.4113 15.6905
rfingers 7.12502
rthumb 9.80339 -14.0613
lclavicle 7.95139e-016 8.74653e-015
lhumerus -20.3077 -0.332463 88.1943
lradius 51.2316
lwrist 0.97702
lhand -21.8128 20.4274
lfingers 7.12502
lthumb 4.58958 50.3576
rfemur -63.5051 1.86159 19.3972
rtibia 56.962
rfoot -20.8649 -9.25334
rtoes -5.18894
lfemur -64.0258 0.695036 -19.2352
ltibia 57.1286
lfoot -24.2661 3.28298
ltoes 1.43576
201
root 1.29422 16.3154 -16.0354 33.1146 -1.64162 -1.07173
lowerback 24.7109 0.229652 0.933794
upperback 1.4926 0.835991 2.20801
thorax -12.2059 0.405231 1.67046
lowerneck -27.789 -4.76572 -8.39669
upperneck 3.52915 -4.37581 7.67502
head 5.71441 -1.64001 3.3034
rclavicle 2.38542e-015 -1.90833e-014
rhumerus -20.583 1.20637 -85.8338
rradius 62.0055
rwrist -3.04898
rhand -17.1111 13.3383
rfingers 7.12502
rthumb 9.12812 -16.4441
lclavicle 2.38542e-015 -1.90833e-014
lhumerus -19.7973 0.143667 88.3344
lradius 51.2293
lwrist 2.23377
lhand -22.1354 19.9398
lfingers 7.12502
lthumb 4.27801 49.8766
rfemur -64.3934 1.65003 19.4845
rtibia 58.0856
rfoot -21.6775 -9.16256
rtoes -3.74753
lfemur -64.9185 0.598865 -19.2652
ltibia 58.178
lfoot -24.6805 3.44192
ltoes 1.15059
